<svg xmlns="http://www.w3.org/2000/svg" viewBox="0 0 74.15 74.17"><defs><style>.cls-1{fill:#f79021;}.cls-2{fill:#fff;}</style></defs><g id="Layer_2" data-name="Layer 2"><g id="Layer_1-2" data-name="Layer 1"><path class="cls-1" d="M54.16,61.77a21.09,21.09,0,0,0-.61,6.38,13.54,13.54,0,0,0,.69,2h0A37.77,37.77,0,0,0,60.58,66s-2-2.37-2-8c.36-7.11-3.06-15-9.94-18.75,0,.15-.06.31-.1.46C54.48,45.24,55.53,54.29,54.16,61.77Z"/><path class="cls-1" d="M62.83,53.14c.9,5.5,3.16,7.46,3.16,7.46h0a38.23,38.23,0,0,0,3.56-5.23S66.9,54,65,48.85C63,41.44,56.17,36.29,48.6,34.74a2,2,0,0,1,0,.24C56.09,38.4,61.63,44.82,62.83,53.14Z"/><path class="cls-1" d="M43.38,66.76c-2.7,4.41-2.49,7.41-2.49,7.41h0A39.89,39.89,0,0,0,47.14,73s-.9-2.87.85-7.57c3-7.05,4.34-15.59-.89-22.21l0,0C49.7,51.15,48.37,60.35,43.38,66.76Z"/><path class="cls-1" d="M72.08,33a7.49,7.49,0,0,0,2.07.31h0A39.67,39.67,0,0,0,73,27s-2.85.89-8-1.71c-6.82-3.06-15.28-2.72-21.21,2.09l.37.28C53.61,23.14,64.06,27,72.08,33Z"/><path class="cls-1" d="M68.05,20.5a8.26,8.26,0,0,0,2.11-.59A37.37,37.37,0,0,0,66,13.57a7.39,7.39,0,0,1-1.89,1c-9.41-.48-20,2.17-24.89,10.9a9,9,0,0,1,.93.22C47.21,18.49,58.72,17.72,68.05,20.5Z"/><path class="cls-1" d="M7.42,43C3,40.7,0,40.91,0,40.91H0a40.21,40.21,0,0,0,1.18,6.24,14.88,14.88,0,0,1,7.48.29c6.9,4.67,15.48,3.78,22.52-.19L31,47.13C23.34,50.15,14.22,48.08,7.42,43Z"/><path class="cls-1" d="M12.07,53.5c-5.23-.59-8.08.75-8.08.75a37.52,37.52,0,0,0,4.17,6.34s2.38-2.05,7.41-2.69c8,1,15.21-3.13,19.94-9.17l-.34,0C29.15,54.6,20.33,55.47,12.07,53.5Z"/><path class="cls-1" d="M58.91,9.44a7,7,0,0,0,1.68-1.26h0a37.56,37.56,0,0,0-5.26-3.59S54,7.25,48.5,9.17A20.63,20.63,0,0,0,35.34,25.46l.17,0C37.78,14.94,50.35,11.92,58.91,9.44Z"/><path class="cls-1" d="M20.22,62.23C15.53,63.74,13.57,66,13.57,66h0a38.11,38.11,0,0,0,5.24,3.57,14.15,14.15,0,0,1,5.54-5c7.91-2.21,14.35-7.88,15.34-16l-.29.08C35.89,56.12,28.25,61.66,20.22,62.23Z"/><path class="cls-1" d="M31.19,66.48c-4.33,3.17-5.37,6.15-5.37,6.15h0a37.22,37.22,0,0,0,7.44,1.54s.23-3.16,3.63-7.1c5-5.55,9.29-13.15,7-20.45l-.4.28C44.41,55.19,37.81,62.67,31.19,66.48Z"/><path class="cls-1" d="M72.1,40.3c-6.68-6.54-15.65-12.67-25.34-9.88.14.2.27.41.39.62,7.63-.08,15,4.29,19.52,10.87a20.69,20.69,0,0,0,4,5.47,12.88,12.88,0,0,0,1.92,1,37.22,37.22,0,0,0,1.54-7.44A7.15,7.15,0,0,1,72.1,40.3Z"/><path class="cls-1" d="M20.07,12.66A19.78,19.78,0,0,0,20.6,6a11.16,11.16,0,0,0-.69-2h0a37.31,37.31,0,0,0-6.34,4.17,11.41,11.41,0,0,1,1.18,1.75,21.62,21.62,0,0,1,1.14,6.22c-.48,7.34,3.41,14.73,9.57,19.17,0-.31.1-.62.17-.93A24.35,24.35,0,0,1,20.07,12.66Z"/><path class="cls-1" d="M11.77,20.69c-1.35-5.14-3.61-7.12-3.61-7.12h0A38.53,38.53,0,0,0,4.6,18.83s2.65,1.39,5,5.87c2.86,6.6,8.07,13.2,16,14.81,0-.14,0-.29-.07-.43C18.1,36.2,12.61,28.45,11.77,20.69Z"/><path class="cls-1" d="M7.8,31.27a23.17,23.17,0,0,0-4.35-4.52,11.38,11.38,0,0,0-1.91-.91A37.22,37.22,0,0,0,0,33.28s3.13.23,7.19,3.49a25.16,25.16,0,0,0,15.55,7.8A35.66,35.66,0,0,0,27.58,44l-.3-.41C19.13,43.66,11.53,38.23,7.8,31.27Z"/><polygon class="cls-1" points="33.26 0.02 33.26 0.02 33.26 0.02 33.26 0.02"/><path class="cls-1" d="M30.24,7.82a25.08,25.08,0,0,0,2.92-5.77,11.05,11.05,0,0,0,.1-2A37.71,37.71,0,0,0,27,1.2s.9,2.86-1.17,7.91c-2.43,6.58-3.15,15.21,1.28,21.73a2.9,2.9,0,0,1,.2-.33C24.61,23.41,24.94,14.31,30.24,7.82Z"/><polygon class="cls-1" points="48.33 1.54 48.33 1.54 48.33 1.54 48.33 1.54"/><path class="cls-1" d="M47.27,3.45a8.71,8.71,0,0,0,1.06-1.91A37.22,37.22,0,0,0,40.89,0a12.93,12.93,0,0,1-.4,2.07,20.42,20.42,0,0,1-4.16,5.24c-6.1,4.67-7.92,13.12-5.83,20,.25-.16.5-.31.76-.45C30.7,16.77,39.41,8.81,47.27,3.45Z"/><path class="cls-2" d="M47.08,43.24l0,0,0-.06S47.07,43.21,47.08,43.24Z"/><polygon class="cls-2" points="30.66 43.26 30.66 43.26 30.66 43.26 30.66 43.26"/><path class="cls-1" d="M37.07,29.74a7.35,7.35,0,1,0,7.35,7.34A7.34,7.34,0,0,0,37.07,29.74Z"/></g></g></svg>